OpenSim_Sub11_CSPreOp_LCS.mot
version=1
nRows=67
nColumns=11
inDegrees=no
endheader
time	Bot_Shank	2nd_Bot_Shank	2nd_Top_Shank	Top_Shank	Bot_Thigh	Med_Thigh	Top_Thigh	BNOx	BNOy	BNOZ
27.75000000	8914.84114212	9341.42157948	9631.97727927	9152.58909603	10187.37417508	11230.97183791	11302.11009539	166.60458744	-82.16066276	9.37747823
27.76000000	8895.27241868	9321.55822972	9623.28461830	9153.21571165	10184.69820561	11232.66164282	11303.14537693	165.73147309	-80.83634891	12.84615440
27.77000000	8873.37246411	9300.85683898	9613.73054245	9153.80519393	10182.27810330	11233.55974839	11303.21173022	164.84779209	-79.47642452	8.98227888
27.78000000	8850.54401486	9280.40942810	9603.77108200	9154.23766845	10180.62770817	11233.83258931	11303.02316746	163.94751909	-78.09452831	-0.30142335
27.79000000	8828.18980737	9261.30801792	9593.86226725	9154.39326075	10180.26086026	11233.64660025	11303.29370085	163.02462874	-76.70429903	-13.09222732
27.80000000	8807.71257811	9244.64462928	9584.46012847	9154.15209640	10181.69139957	11233.16821589	11304.73734260	162.07309567	-75.31937540	-27.47740807
27.81000000	8790.51506350	9231.51128303	9576.02069596	9153.39430096	10185.43316615	11232.56387092	11308.06810492	161.08689454	-73.95339614	-41.54424062
27.82000000	8778	9223	9569	9152	10192	11232	11314	160.06000000	-72.62000000	-53.38000000
27.83000000	8771.17798323	9219.87595238	9563.75517912	9149.94395489	10201.70476871	11231.60999434	11322.99356856	158.99096317	-71.33291852	-61.48901116
27.84000000	8769.49104547	9221.59691773	9560.24780479	9147.57947028	10214.05645002	11231.39507124	11334.49546533	157.89664115	-70.10625461	-66.04379868
27.85000000	8771.98907819	9227.29382493	9558.34055671	9145.35448667	10228.36304926	11231.32340451	11347.69887356	156.79846750	-68.95420396	-67.63393709
27.86000000	8777.72197284	9236.09760287	9557.89611460	9143.71694451	10243.93257173	11231.36316797	11361.79697649	155.71787580	-67.89096231	-66.84900087
27.87000000	8785.73962089	9247.13918046	9558.77715817	9143.11478429	10260.07302273	11231.48253543	11375.98295735	154.67629963	-66.93072537	-64.27856455
27.88000000	8795.09191379	9259.54948658	9560.84636712	9143.99594648	10276.09240757	11231.64968071	11389.44999940	153.69517256	-66.08768886	-60.51220263
27.89000000	8804.82874301	9272.45945013	9563.96642116	9146.80837156	10291.29873156	11231.83277763	11401.39128587	152.79592816	-65.37604850	-56.13948961
27.90000000	8814	9285	9568	9152	10305	11232	11411	152	-64.81000000	-51.75000000
27.91000000	8821.84142259	9296.45776031	9572.81679690	9159.88301312	10316.62487003	11232.12576273	11417.67669200	151.32298220	-64.40186941	-47.83703634
27.92000000	8828.33213404	9306.74213612	9578.31455927	9170.22655556	10326.08460606	11232.20944510	11421.65137992	150.75711099	-64.15650407	-44.50881329
27.93000000	8833.63710401	9315.91822769	9584.39804809	9182.66401281	10333.41112435	11232.25666747	11423.36144876	150.28878316	-64.07688164	-41.77727354
27.94000000	8837.92130213	9324.05113531	9590.97202433	9196.82877035	10338.63634113	11232.27305020	11423.24428354	149.90439547	-64.16597979	-39.65435977
27.95000000	8841.34969803	9331.20595927	9597.94124894	9212.35421365	10341.79217264	11232.26421367	11421.73726926	149.59034471	-64.42677619	-38.15201468
27.96000000	8844.08726137	9337.44779982	9605.21048291	9228.87372822	10342.91053513	11232.23577824	11419.27779093	149.33302764	-64.86224849	-37.28218095
27.97000000	8846.29896177	9342.84175726	9612.68448719	9246.02069952	10342.02334484	11232.19336427	11416.30323356	149.11884104	-65.47537437	-37.05680127
27.98000000	8848.14976888	9347.45293187	9620.26802276	9263.42851303	10339.16251802	11232.14259214	11413.25098216	148.93418170	-66.26913149	-37.48781833
27.99000000	8849.80465234	9351.34642391	9627.86585058	9280.73055425	10334.35997090	11232.08908220	11410.55842174	148.76544637	-67.24649751	-38.58717481
28	8851.42858178	9354.58733368	9635.38273162	9297.56020866	10327.64761974	11232.03845482	11408.66293731	148.59903185	-68.41045011	-40.36681342
28.01000000	8853.18648772	9357.24075570	9642.72338634	9313.55082161	10319.05748024	11231.99632913	11408.00175420	148.42134688	-69.76395647	-42.83857186
28.02000000	8855.19137774	9359.36416094	9649.73878241	9328.28249042	10308.75357367	11231.96667750	11408.80021179	148.23469501	-71.29609142	-45.87499917
28.03000000	8857.40197757	9360.99236797	9656.12016839	9341.17709317	10297.29215772	11231.94857925	11410.65405911	148.08860901	-72.95465050	-48.93476696
28.04000000	8859.74848857	9362.15600729	9661.52926321	9351.62725561	10285.30200861	11231.94020901	11413.04264366	148.04135359	-74.67979732	-51.40002729
28.05000000	8862.16111210	9362.88570938	9665.62778582	9359.02560349	10273.41190253	11231.93974145	11415.44531292	148.15119347	-76.41169553	-52.65293220
28.06000000	8864.57004952	9363.21210475	9668.07745516	9362.76476256	10262.25061568	11231.94535120	11417.34141437	148.47639337	-78.09050875	-52.07563375
28.07000000	8866.90550221	9363.16582389	9668.53999020	9362.23735858	10252.44692426	11231.95521291	11418.21029550	149.07521801	-79.65640060	-49.05028400
28.08000000	8869.09767153	9362.77749728	9666.67710986	9356.83601731	10244.62960447	11231.96750123	11417.53130380	150.00593212	-81.04953472	-42.95903499
28.09000000	8871.07675884	9362.07775542	9662.15053310	9345.95336450	10239.42743250	11231.98039082	11414.78378674	151.32680040	-82.21007472	-33.18403877
28.10000000	8872.77296552	9361.09722881	9654.62197885	9328.98202590	10237.46918457	11231.99205631	11409.44709181	153.09608759	-83.07818425	-19.10744741
28.11000000	8874.11649066	9359.86646603	9643.75349435	9305.31528839	10239.38328767	11232.00067285	11401.00092370	155.37202410	-83.59404412	-0.11194896
28.12000000	8875.03454778	9358.30732281	9629.64274497	9275.22374766	10245.33479164	11232.00507246	11389.39899022	158.16734526	-83.72065650	23.70848604
28.13000000	8875.44547898	9356.01868884	9613.68177620	9241.58480315	10254.11188405	11232.00603893	11376.00343496	161.35960375	-83.48883403	50.14640788
28.14000000	8875.26598623	9352.53974237	9597.50194450	9207.75781224	10264.24819186	11232.00471694	11362.43679963	164.80135909	-82.94192649	76.60361711
28.15000000	8874.41277146	9347.40966163	9582.73460631	9177.10213227	10274.27734200	11232.00225113	11350.32162592	168.34517081	-82.12328365	100.48191425
28.16000000	8872.80260273	9340.16785503	9571.01071796	9152.97629036	10282.73328361	11231.99978594	11341.28007177	171.84361872	-81.07625862	119.18374629
28.17000000	8870.43998056	9330.65912965	9563.43027250	9137.63710468	10288.57749916	11231.99817402	11336.42502358	175.17621171	-79.84864016	130.96938049
28.18000000	8867.59009051	9319.63574332	9559.51557776	9130.06781498	10292.04182833	11231.99740088	11335.35613670	178.30247484	-78.50139695	136.64798041
28.19000000	8864.56631481	9308.01772755	9558.49725189	9128.64642682	10293.59298032	11231.99729176	11337.39329336	181.19672688	-77.09793442	137.49996133
28.20000000	8861.68203569	9296.72511384	9559.60591304	9131.75094570	10293.69766430	11231.99767189	11341.85637579	183.83328663	-75.70165802	134.80573848
28.21000000	8859.25063536	9286.67793367	9562.07217934	9137.75937718	10292.82258946	11231.99836649	11348.06526622	186.18647287	-74.37597319	129.84572714
28.22000000	8857.58549606	9278.79621856	9565.12666895	9145.04972676	10291.43446496	11231.99920078	11355.33984688	188.23060440	-73.18428537	123.90034256
28.23000000	8857	9274	9568	9152	10290	11232	11363	189.94000000	-72.19000000	118.25000000
28.24000000	8857.72530303	9272.95911161	9570.07785678	9157.29615317	10288.90127472	11232.00062205	11370.47590398	191.29898150	-71.44109399	113.93167537
28.25000000	8859.66365546	9275.34259550	9571.36618814	9160.85594555	10288.18185315	11232.00105562	11377.63892197	192.33188289	-70.92383011	111.00858721
28.26000000	8862.63508124	9280.56929588	9572.02600907	9162.90508722	10287.80067028	11232.00132205	11384.47071326	193.07304120	-70.60904260	109.30051469
28.27000000	8866.45960429	9288.05805699	9572.21833456	9163.66928820	10287.71666111	11232.00144271	11390.95293717	193.55679345	-70.46756569	108.62723700
28.28000000	8870.95724855	9297.22772306	9572.10417961	9163.37425855	10287.88876063	11232.00143897	11397.06725301	193.81747668	-70.47023361	108.80853333
28.29000000	8875.94803796	9307.49713830	9571.84455919	9162.24570831	10288.27590384	11232.00133217	11402.79532009	193.88942790	-70.58788062	109.66418286
28.30000000	8881.25199646	9318.28514693	9571.60048832	9160.50934753	10288.83702573	11232.00114367	11408.11879772	193.80698416	-70.79134093	111.01396478
28.31000000	8886.68914797	9329.01059320	9571.53298197	9158.39088627	10289.53106130	11232.00089485	11413.01934522	193.60448247	-71.05144878	112.67765827
28.32000000	8892.07951645	9339.09232131	9571.80305514	9156.11603456	10290.31694553	11232.00060706	11417.47862189	193.31625986	-71.33903843	114.47504251
28.33000000	8897.24312581	9347.94917551	9572.57172282	9153.91050245	10291.15361344	11232.00030166	11421.47828705	192.97665336	-71.62494409	116.22589669
28.34000000	8902.00000000	9355.00000000	9574.00000000	9152.00000000	10292	11232	11425.00000000	192.62000000	-71.88000000	117.75000000
28.35000000	8906.21134012	9359.82324615	9576.22216653	9150.56264191	10292.82258244	11231.99972088	11428.03566064	192.27452038	-72.08185288	118.90691617
28.36000000	8909.90305592	9362.63579385	9579.26556170	9149.58616155	10293.61800690	11231.99947279	11430.61813120	191.94396941	-72.23539930	119.71534714
28.37000000	8913.14223434	9363.81413011	9583.13078965	9149.01069696	10294.39046172	11231.99926163	11432.79051448	191.62598555	-72.35234831	120.23377942
28.38000000	8915.99596229	9363.73474195	9587.81845452	9148.77638615	10295.14413526	11231.99909334	11434.59591329	191.31820730	-72.44440898	120.52069948
28.39000000	8918.53132670	9362.77411640	9593.32916046	9148.82336717	10295.88321587	11231.99897383	11436.07743045	191.01827311	-72.52329034	120.63459384
28.40000000	8920.81541449	9361.30874047	9599.66351161	9149.09177805	10296.61189191	11231.99890901	11437.27816875	190.72382148	-72.60070147	120.63394898
28.41000000	8922.91531259	9359.71510118	9606.82211211	9149.52175681	10297.33435173	11231.99890479	11438.24123101	190.43249088	-72.68835140	120.57725140
